<svg xmlns="http://www.w3.org/2000/svg" viewBox="0 0 1600 1000"><defs><linearGradient id="sky" x2="0" y2="1"><stop stop-color="#07121d"/><stop offset="1" stop-color="#153e36"/></linearGradient><radialGradient id="sun"><stop stop-color="#6a9e88" stop-opacity=".26"/><stop offset="1" stop-color="#6a9e88" stop-opacity="0"/></radialGradient></defs><path fill="url(#sky)" d="M0 0h1600v1000H0Z"/><ellipse cx="800" cy="380" rx="650" ry="500" fill="url(#sun)"/><path d="m0 690 190-175 165 120 215-220 160 240 160-140 165 105 175-170 180 245v305H0Z" fill="#153e36"/><path d="M0 770Q350 650 750 810T1600 740v260H0Z" fill="#0a1a21"/><path d="M110 840V120l120-80-38 730M1390 840V80l-120 40 55 650" fill="#071f20"/><path d="M0 920Q500 790 1600 940" fill="none" stroke="#6a9e88" stroke-opacity=".22" stroke-width="4"/></svg>